<?xml version="1.0" encoding="iso-8859-1"?>
<!-- Generator: Adobe Illustrator 16.0.0, SVG Export Plug-In . SVG Version: 6.00 Build 0)  -->
<!DOCTYPE svg PUBLIC "-//W3C//DTD SVG 1.1//EN" "http://www.w3.org/Graphics/SVG/1.1/DTD/svg11.dtd">
<svg xmlns="http://www.w3.org/2000/svg" xmlns:xlink="http://www.w3.org/1999/xlink" version="1.1" id="Capa_1" x="0px" y="0px" width="512px" height="512px" viewBox="0 0 71.905 71.906" style="enable-background:new 0 0 71.905 71.906;" xml:space="preserve">
<g>
	<g id="Check">
		<g>
			<path d="M69.87,8.134c-2.088-1.377-4.908-0.805-6.297,1.256L33.729,53.863L7.004,36.888c-2.117-1.338-4.923-0.729-6.284,1.347     c-1.354,2.091-0.745,4.866,1.365,6.205l30.495,19.376c0.369,0.232,0.762,0.404,1.163,0.521c0.002,0,0.004,0.002,0.005,0.002     c0.19,0.055,0.383,0.094,0.576,0.125c0.022,0.002,0.044,0.01,0.066,0.014c0.214,0.029,0.429,0.045,0.643,0.045     c0.186,0,0.369-0.012,0.553-0.033c0.146-0.018,0.292-0.048,0.436-0.079c0.035-0.008,0.07-0.011,0.104-0.019     c0.532-0.129,1.04-0.354,1.497-0.666c0.003-0.002,0.006-0.004,0.008-0.006c0.131-0.088,0.255-0.188,0.377-0.293     c0.022-0.021,0.047-0.035,0.069-0.055c0.096-0.087,0.184-0.181,0.271-0.275c0.045-0.047,0.093-0.09,0.135-0.139     c0.063-0.072,0.119-0.152,0.179-0.229c0.055-0.072,0.113-0.14,0.165-0.216l32.318-48.159C72.536,12.285,71.964,9.503,69.87,8.134     z" fill="#717171"/>
		</g>
	</g>
</g>
<g>
</g>
<g>
</g>
<g>
</g>
<g>
</g>
<g>
</g>
<g>
</g>
<g>
</g>
<g>
</g>
<g>
</g>
<g>
</g>
<g>
</g>
<g>
</g>
<g>
</g>
<g>
</g>
<g>
</g>
</svg>
