<?xml version="1.0" encoding="UTF-8" standalone="no"?>
<svg width="19px" height="12px" viewBox="0 0 19 12" version="1.1" xmlns="http://www.w3.org/2000/svg" xmlns:xlink="http://www.w3.org/1999/xlink">
    <!-- Generator: sketchtool 40.3 (33839) - http://www.bohemiancoding.com/sketch -->
    <title>2C588AEE-F895-417F-A66B-53740B750D91</title>
    <desc>Created with sketchtool.</desc>
    <defs></defs>
    <g id="Symbols" stroke="none" stroke-width="1" fill="none" fill-rule="evenodd">
        <g id="sidebar" transform="translate(-94.000000, -90.000000)" fill="#858585">
            <g id="dashboard">
                <path d="M112.211592,97.0583629 C112.05934,96.5972887 111.872535,96.1470125 111.654416,95.7172525 L109.004589,96.9115102 C109.238905,97.3369511 109.42571,97.7861475 109.562845,98.2526207 L112.211592,97.0583629 L112.211592,97.0583629 Z M98.6352785,96.0833044 C98.927904,95.7010555 99.2615619,95.35444 99.6276138,95.0499367 L97.5867936,92.9238124 C97.2326195,93.2412733 96.8989616,93.5878888 96.5955381,93.9571801 L98.6352785,96.0833044 L98.6352785,96.0833044 Z M100.487134,94.4474088 C100.896378,94.2087732 101.330457,94.0198084 101.780733,93.8826739 L100.664221,91.1086702 C100.221503,91.2620016 99.7874241,91.4520463 99.3706216,91.6744849 L100.487134,94.4474088 L100.487134,94.4474088 Z M97.5079683,98.3519622 C97.638624,97.8822496 97.8189504,97.4298138 98.0457082,97.0022134 L95.3796844,95.8511476 C95.166964,96.2863066 94.9866375,96.7387424 94.8419444,97.2008964 L97.5079683,98.3519622 L97.5079683,98.3519622 Z M107.694792,91.6572081 C107.27691,91.4358493 106.841751,91.2479643 106.399034,91.0967924 L105.293319,93.8751153 C105.743596,94.0100902 106.178755,94.1979752 106.589078,94.435531 L107.694792,91.6572081 L107.694792,91.6572081 Z M110.50335,93.9571801 C110.198846,93.5878888 109.866268,93.2412733 109.512094,92.9238124 L107.471274,95.0499367 C107.837326,95.35444 108.169904,95.7021353 108.46253,96.0833044 L110.50335,93.9571801 L110.50335,93.9571801 Z M104.250234,90.6540748 C104.013758,90.6346384 103.778361,90.626 103.549444,90.626 C103.320527,90.626 103.084051,90.6357182 102.847575,90.6540748 L102.847575,93.6602353 C103.080811,93.6332403 103.316207,93.619203 103.549444,93.619203 C103.782681,93.619203 104.018077,93.6321605 104.250234,93.6602353 L104.250234,90.6540748 L104.250234,90.6540748 Z M101.871651,99.8899442 C102.110558,99.3776076 102.602349,99.0637213 103.128644,99.0272878 L105.302808,96.0811067 L104.443699,99.6398017 C104.754665,100.066657 104.829752,100.644882 104.590845,101.157219 C104.240467,101.908607 103.347994,102.233441 102.597186,101.883333 C101.846377,101.533226 101.521544,100.640752 101.871651,99.8899442 Z"></path>
            </g>
        </g>
    </g>
</svg>